<?xml version="1.0" encoding="UTF-8" standalone="no"?>
<!-- Generator: Adobe Illustrator 17.0.1, SVG Export Plug-In . SVG Version: 6.00 Build 0)  -->

<svg
   version="1.1"
   x="0px"
   y="0px"
   width="86px"
   height="86px"
   viewBox="0 0 86 86"
   enable-background="new 0 0 86 86"
   xml:space="preserve"
   id="svg44"
   xmlns="http://www.w3.org/2000/svg"
   xmlns:svg="http://www.w3.org/2000/svg"
   xmlns:rdf="http://www.w3.org/1999/02/22-rdf-syntax-ns#"
   xmlns:cc="http://creativecommons.org/ns#"
   xmlns:dc="http://purl.org/dc/elements/1.1/"><metadata
   id="metadata50"><rdf:RDF><cc:Work
       rdf:about=""><dc:format>image/svg+xml</dc:format><dc:type
         rdf:resource="http://purl.org/dc/dcmitype/StillImage" /></cc:Work></rdf:RDF></metadata><defs
   id="defs48">
	
		<linearGradient
   gradientTransform="translate(-671.1376)"
   y2="0.71689999"
   x2="756.42072"
   y1="85.283096"
   x1="671.85449"
   gradientUnits="userSpaceOnUse"
   id="SVGID_1_">
		<stop
   id="stop3"
   style="stop-color:#F7D6B3"
   offset="0" />
		<stop
   id="stop5"
   style="stop-color:#777F81"
   offset="0.5" />
		<stop
   id="stop7"
   style="stop-color:#F6FFE4"
   offset="0.9951" />
	</linearGradient>
	
	
	
	
	
	
	
<linearGradient
   gradientTransform="translate(-671.1376)"
   y2="0.71689999"
   x2="756.42072"
   y1="85.283096"
   x1="671.85449"
   gradientUnits="userSpaceOnUse"
   id="SVGID_1_-3">
		<stop
   id="stop3-6"
   style="stop-color:#ff8a04;stop-opacity:1;"
   offset="0" />
		<stop
   id="stop5-7"
   style="stop-color:#610000;stop-opacity:1;"
   offset="0.5" />
		<stop
   id="stop7-0"
   style="stop-color:#ff8a04;stop-opacity:1;"
   offset="0.99510002" />
	</linearGradient></defs>
<g
   id="Layer_2"
   display="none">
</g>

<path
   style="fill:url(#SVGID_1_-3)"
   id="path10"
   d="M 84.277004,0.3 H 43 C 19.417,0.3 0.3,19.418 0.3,43 v 41.277005 c 0,0.786 0.637,1.423 1.423,1.423 H 43 c 23.583,0 42.700004,-19.118 42.700004,-42.700005 V 1.723 c 0,-0.786 -0.637,-1.423 -1.423,-1.423 z" /><path
   style="fill:#281717;fill-opacity:1;stroke-width:0.290383"
   d="m 42.54379,74.690275 c -0.19543,-0.3637 -1.32497,-2.62134 -2.51009,-5.017 -1.18512,-2.39567 -2.18054,-4.382965 -2.21204,-4.416235 -0.0315,-0.0333 -0.81302,0.11521 -1.73671,0.32993 -1.233333,0.2867 -1.712129,0.30276 -1.802545,0.0605 -0.06772,-0.18146 -0.776608,-2.28512 -1.575312,-4.6748 -1.184135,-3.54286 -1.45219,-4.71575 -1.45219,-6.35416 0,-2.63588 0.730382,-3.96533 2.178487,-3.96533 0.840305,0 0.994993,-0.11567 1.160126,-0.86751 0.104798,-0.47714 0.584714,-1.16317 1.066494,-1.52452 0.48179,-0.36135 1.65761,-1.37226 2.61294,-2.24647 0.95534,-0.87421 2.15137,-1.72358 2.65787,-1.88749 0.77076,-0.24944 0.96323,-0.49889 1.18061,-1.53017 0.23094,-1.09558 0.15264,-1.44961 -0.70649,-3.19422 -0.6007,-1.21982 -0.94226,-2.31909 -0.90289,-2.90582 0.0531,-0.79146 -0.0373,-0.94375 -0.56037,-0.94375 -0.59644,0 -0.61463,-0.0847 -0.41614,-1.93809 0.11415,-1.06595 0.27403,-2.11133 0.35527,-2.32307 0.0812,-0.21174 0.0248,-0.38497 -0.12551,-0.38497 -0.37092,0 -7.358948,6.88262 -8.159811,8.03674 -0.352019,0.50728 -1.324025,1.41801 -2.160014,2.02384 -0.83599,0.60583 -3.191419,2.58837 -5.234288,4.40564 -3.072586,2.73328 -3.65408,3.37671 -3.36571,3.72417 0.283472,0.34156 0.139066,0.63461 -0.772975,1.56863 -1.134119,1.16144 -1.917936,1.37778 -3.181582,0.87813 -0.400208,-0.15823 -0.802558,-0.0565 -1.294157,0.32721 -0.422536,0.32982 -0.963829,0.49399 -1.327651,0.40267 -0.449719,-0.11287 -0.91613,0.15498 -1.741206,0.99994 -0.61982,0.63475 -1.270801,1.15409 -1.446625,1.15409 -0.175823,0 -0.762964,0.45735 -1.304756,1.01634 -0.944828,0.97482 -1.744037,1.22032 -2.734893,0.84009 -0.757736,-0.29077 -0.532004,-0.82336 0.919995,-2.17063 0.758628,-0.70391 2.926051,-2.75059 4.816498,-4.54818 2.578859,-2.4522 3.6303,-3.2713 4.21056,-3.28016 0.425362,-0.006 1.225804,-0.39851 1.778759,-0.87115 0.552956,-0.47264 1.156496,-0.85935 1.341202,-0.85935 0.329616,0 4.667797,-4.60911 6.370373,-6.76821 0.476139,-0.60382 1.453734,-1.46484 2.172433,-1.91339 0.718699,-0.44855 1.956431,-1.58615 2.750514,-2.528 0.794084,-0.94186 2.166146,-2.36031 3.049026,-3.15213 0.882878,-0.79181 1.963588,-1.93267 2.401558,-2.53525 0.43798,-0.60258 1.32758,-1.44716 1.97689,-1.87686 L 40,25 l 1.32798,0.64519 c 0.90677,0.44053 1.59231,0.58712 2.16132,0.46215 0.61002,-0.13398 0.88034,-0.0606 1.00872,0.274 0.0965,0.25137 0.28665,0.38826 0.42265,0.30421 0.35324,-0.21831 -0.007,-1.00537 -0.45998,-1.00537 -0.20906,0 -0.78311,-0.50883 -1.27566,-1.13073 -0.82548,-1.04225 -0.89555,-1.30612 -0.89555,-3.3722 0,-3.1352 1.70604,-9.17973 2.963,-10.49798 0.93646,-0.98212 2.69897,-1.52242 3.23095,-0.99044 0.43664,0.43664 1.23835,0.3864 2.25937,-0.14159 1.3045,-0.67458 2.71021,-0.13144 3.45912,1.33654 0.47645,0.93394 0.57039,1.68258 0.55252,4.40362 -0.0179,2.72947 -0.39935,6.7626 -0.52289,5.52885 -0.0598,-0.59767 -0.5632,-0.41052 -0.78104,0.29038 -0.11168,0.35936 -0.5921,1.52816 -1.06758,2.59734 -0.71713,1.61253 -1.00766,1.97541 -1.704,2.12835 -0.62966,0.1383 -0.83948,0.35172 -0.83948,0.85387 0,0.84732 1.21142,1.67886 2.11533,1.452 0.90343,-0.22675 1.89213,0.20263 3.13746,1.36255 1.22238,1.13855 2.73525,4.29481 2.4964,5.20817 -0.0897,0.34316 0.0789,1.23788 0.37463,1.98828 0.29578,0.7504 0.69411,2.20472 0.88519,3.23182 0.21323,1.14621 0.67148,2.33439 1.18648,3.07645 0.4615,0.66496 0.83908,1.36462 0.83908,1.55481 0,0.1902 0.65336,2.00478 1.45192,4.03243 0.79855,2.02764 1.45191,3.89633 1.45191,4.15267 0,0.5788 2.31995,1.97315 3.28297,1.97315 0.39121,0 0.84045,0.16335 0.99831,0.36298 0.26645,0.33695 2.97831,8.25176 2.97831,8.69243 0,0.10891 -0.39201,0.18688 -0.87115,0.17326 -0.47913,-0.0136 -0.87115,-0.14344 -0.87115,-0.28848 0,-0.14504 -0.35935,-1.04326 -0.79855,-1.99604 -0.73593,-1.59645 -0.86105,-1.72094 -1.5954,-1.58719 -0.62295,0.11346 -0.90202,-0.0154 -1.2788,-0.59043 -0.37223,-0.5681 -0.68663,-0.71654 -1.38103,-0.65203 -0.49449,0.046 -0.96475,0.17241 -1.04501,0.28105 -0.0803,0.10863 -0.49151,0.13146 -0.91389,0.0507 -0.61965,-0.11846 -0.83895,-0.40039 -1.1356,-1.45991 -0.32715,-1.16845 -0.3134,-1.34347 0.12479,-1.58869 0.38723,-0.21671 0.45045,-0.50402 0.2959,-1.3448 -0.10809,-0.58807 -0.29736,-1.13546 -0.42059,-1.21644 -0.82761,-0.54381 -6.05758,-11.75641 -6.73747,-14.44454 -0.17167,-0.67878 -0.39507,-1.23413 -0.49644,-1.23413 -0.10137,0 -0.48374,0.94737 -0.84973,2.10528 -0.36599,1.1579 -0.82668,2.23595 -1.02378,2.39566 -0.19709,0.15971 -0.56291,0.87841 -0.81293,1.59711 -0.25002,0.71869 -0.5426,1.52206 -0.65018,1.78524 -0.12103,0.29611 0.0196,0.68354 0.36883,1.01634 0.31044,0.29581 0.66004,0.86451 0.77689,1.26379 0.11686,0.39927 0.60363,1.5072 1.08171,2.46206 0.64768,1.2936 0.83336,2.00357 0.72848,2.78545 -0.13786,1.02786 -0.11983,1.05015 0.88016,1.08774 2.40841,0.0905 2.29476,-0.41588 1.57588,7.02239 l -0.49112,5.081715 -1.28947,0.0225 -1.28947,0.0225 -0.90058,4.33328 -0.90057,4.33327 -4.10903,0.0805 c -4.01706,0.0787 -4.11698,0.0657 -4.46435,-0.58077 z M 67.26246,59.2411 c 0,-0.35221 -0.82652,-1.59382 -0.88427,-1.32836 -0.0174,0.0798 -0.0542,0.54913 -0.0818,1.04283 -0.0405,0.72417 0.048,0.87195 0.45793,0.76469 0.27949,-0.0731 0.50817,-0.28875 0.50817,-0.47916 z M 54.09713,18.0576 c -0.0806,-0.19964 -0.14646,-0.0363 -0.14646,0.36298 0,0.39928 0.0659,0.56262 0.14646,0.36298 0.0806,-0.19964 0.0806,-0.52632 0,-0.72596 z m 0.008,-2.17787 c -0.073,-0.2795 -0.13281,-0.0508 -0.13281,0.50817 0,0.55898 0.0598,0.78766 0.1328,0.50817 0.073,-0.27949 0.073,-0.73685 0,-1.01634 z m -0.20021,-1.90459 c 0,-0.68818 -0.1918,-1.50488 -0.42622,-1.8149 -0.39005,-0.51585 -0.40309,-0.48009 -0.1536,0.42142 0.14993,0.5418 0.20262,1.09833 0.11709,1.23673 -0.16063,0.2599 0.11425,1.40798 0.33711,1.40798 0.0691,0 0.12562,-0.56306 0.12562,-1.25123 z"
   id="path1368-2" /></svg>
